<svg id="svg" version="1.1" xmlns="http://www.w3.org/2000/svg" xmlns:xlink="http://www.w3.org/1999/xlink" width="400" height="488.88888888888886" viewBox="0, 0, 400,488.88888888888886"><g id="svgg"><path id="path0" d="M213.200 3.600 C 213.200 3.856,209.610 4.000,203.229 4.000 C 194.925 4.000,193.157 4.100,192.661 4.596 C 192.209 5.048,192.016 5.073,191.864 4.696 C 191.705 4.304,191.657 4.304,191.632 4.700 C 191.608 5.072,190.312 5.200,186.576 5.200 C 183.329 5.200,181.640 5.341,181.800 5.600 C 181.956 5.853,180.826 6.019,178.724 6.051 C 173.104 6.136,172.617 6.184,172.071 6.700 C 171.740 7.013,170.172 7.226,167.871 7.268 C 162.862 7.362,162.880 7.360,162.328 7.912 C 162.011 8.229,160.482 8.400,157.963 8.400 C 154.885 8.400,154.038 8.524,153.855 9.000 C 153.674 9.472,152.857 9.600,150.036 9.600 C 148.062 9.600,146.336 9.780,146.200 10.000 C 146.064 10.220,144.523 10.400,142.776 10.400 C 140.376 10.400,139.600 10.532,139.600 10.940 C 139.600 11.326,138.907 11.501,137.166 11.553 C 135.827 11.593,134.342 11.880,133.866 12.191 C 133.390 12.501,131.885 12.794,130.522 12.842 C 129.054 12.894,128.075 13.101,128.122 13.349 C 128.167 13.590,127.193 13.833,125.836 13.920 C 124.524 14.004,123.220 14.323,122.907 14.636 C 122.577 14.966,121.540 15.200,120.405 15.200 C 119.339 15.200,118.407 15.368,118.333 15.573 C 118.260 15.778,117.400 16.020,116.421 16.109 C 115.443 16.199,114.573 16.481,114.488 16.736 C 114.403 16.991,113.641 17.200,112.795 17.200 C 111.949 17.200,110.987 17.470,110.657 17.800 C 110.327 18.130,109.515 18.400,108.852 18.400 C 108.189 18.400,107.524 18.599,107.374 18.843 C 107.183 19.151,106.996 19.121,106.756 18.743 C 106.488 18.320,106.411 18.355,106.406 18.900 C 106.401 19.430,106.065 19.600,105.024 19.600 C 104.267 19.600,103.536 19.780,103.400 20.000 C 103.264 20.220,102.542 20.400,101.796 20.400 C 101.026 20.400,100.299 20.651,100.115 20.981 C 99.936 21.301,99.129 21.607,98.321 21.661 C 97.514 21.715,96.886 21.949,96.927 22.180 C 96.967 22.411,96.325 22.656,95.500 22.724 C 94.519 22.805,94.000 23.047,94.000 23.424 C 94.000 23.830,93.524 24.000,92.387 24.000 C 91.323 24.000,90.697 24.204,90.545 24.600 C 90.418 24.930,89.911 25.200,89.419 25.200 C 88.926 25.200,87.958 25.482,87.267 25.827 C 86.576 26.171,85.828 26.341,85.605 26.203 C 85.382 26.065,85.200 26.233,85.200 26.576 C 85.200 26.926,84.861 27.200,84.429 27.200 C 84.004 27.200,83.387 27.470,83.057 27.800 C 82.727 28.130,82.079 28.400,81.616 28.400 C 81.153 28.400,80.671 28.670,80.545 29.000 C 80.418 29.330,79.899 29.600,79.391 29.600 C 78.882 29.600,78.399 29.803,78.317 30.050 C 78.234 30.298,77.690 30.500,77.107 30.500 C 76.524 30.500,75.952 30.747,75.836 31.050 C 75.720 31.352,75.319 31.600,74.944 31.600 C 74.569 31.600,73.954 31.880,73.576 32.221 C 73.199 32.563,72.522 32.871,72.072 32.905 C 71.623 32.938,71.288 33.149,71.328 33.374 C 71.367 33.598,70.995 33.843,70.500 33.918 C 70.005 33.994,69.600 34.188,69.600 34.351 C 69.600 34.696,66.468 36.133,65.714 36.133 C 65.432 36.133,65.200 36.373,65.200 36.667 C 65.200 37.133,64.433 37.395,63.500 37.247 C 63.335 37.221,63.200 37.470,63.200 37.800 C 63.200 38.130,62.924 38.400,62.587 38.400 C 62.251 38.400,61.871 38.670,61.745 39.000 C 61.618 39.330,61.099 39.600,60.591 39.600 C 60.082 39.600,59.607 39.743,59.533 39.917 C 59.460 40.091,58.725 40.646,57.900 41.150 C 57.075 41.653,56.400 42.231,56.400 42.433 C 56.400 42.635,56.130 42.800,55.800 42.800 C 55.470 42.800,55.200 43.070,55.200 43.400 C 55.200 43.773,54.822 44.000,54.200 44.000 C 53.578 44.000,53.200 44.227,53.200 44.600 C 53.200 44.933,52.844 45.200,52.400 45.200 C 51.960 45.200,51.600 45.380,51.600 45.600 C 51.600 45.820,51.319 46.000,50.976 46.000 C 50.633 46.000,50.464 46.180,50.600 46.401 C 50.737 46.621,50.357 46.988,49.756 47.217 C 49.156 47.445,48.110 48.219,47.432 48.936 C 46.249 50.188,44.934 50.998,44.300 50.864 C 44.135 50.829,44.000 51.004,44.000 51.253 C 44.000 51.873,42.378 53.234,41.953 52.971 C 41.764 52.854,41.716 53.038,41.847 53.379 C 42.016 53.819,41.840 54.000,41.243 54.000 C 40.779 54.000,40.442 54.135,40.494 54.300 C 40.546 54.465,38.656 56.530,36.294 58.889 C 33.932 61.247,32.000 63.350,32.000 63.562 C 32.000 63.773,31.648 64.058,31.218 64.194 C 30.788 64.331,30.210 65.068,29.934 65.832 C 29.627 66.681,29.231 67.144,28.916 67.023 C 28.632 66.914,28.400 67.097,28.400 67.429 C 28.400 67.760,27.680 68.717,26.800 69.554 C 25.920 70.391,25.192 71.419,25.183 71.838 C 25.174 72.257,24.634 73.042,23.983 73.581 C 23.332 74.121,22.800 74.802,22.800 75.095 C 22.800 75.387,22.260 76.155,21.600 76.800 C 20.940 77.445,20.400 78.273,20.400 78.640 C 20.400 79.007,19.905 79.754,19.300 80.300 C 18.695 80.847,18.413 81.180,18.673 81.040 C 18.976 80.877,18.930 81.218,18.543 81.993 C 18.212 82.657,17.775 83.200,17.571 83.200 C 17.367 83.200,17.200 83.455,17.200 83.768 C 17.200 84.435,15.935 86.940,15.500 87.133 C 15.335 87.207,15.200 87.792,15.200 88.433 C 15.200 89.204,14.996 89.600,14.600 89.600 C 14.235 89.600,14.000 89.972,14.000 90.551 C 14.000 91.074,13.730 91.726,13.400 92.000 C 13.070 92.274,12.800 92.836,12.800 93.249 C 12.800 93.662,12.575 94.000,12.300 94.001 C 12.009 94.001,11.756 94.621,11.694 95.481 C 11.636 96.295,11.398 97.078,11.165 97.222 C 10.734 97.488,10.090 99.569,9.721 101.886 C 9.608 102.593,9.265 103.380,8.958 103.635 C 8.651 103.890,8.394 104.571,8.387 105.149 C 8.380 105.727,8.110 106.549,7.787 106.976 C 7.464 107.404,7.194 108.394,7.186 109.176 C 7.178 109.959,6.914 111.050,6.600 111.600 C 6.286 112.150,6.022 113.466,6.014 114.524 C 6.005 115.701,5.845 116.351,5.600 116.200 C 5.346 116.043,5.200 117.139,5.200 119.205 C 5.200 121.562,5.035 122.622,4.600 123.057 C 4.137 123.520,4.000 124.696,4.000 128.209 C 4.000 131.798,3.876 132.830,3.412 133.089 C 2.921 133.364,2.817 135.022,2.786 143.087 C 2.754 151.314,2.663 152.722,2.174 152.535 C 1.582 152.308,1.335 153.390,1.900 153.737 C 2.065 153.838,2.110 156.144,2.000 158.861 C 1.890 161.577,1.890 164.908,2.000 166.262 C 2.110 167.616,2.065 168.641,1.900 168.539 C 1.735 168.436,1.600 168.543,1.600 168.776 C 1.600 169.009,1.870 169.200,2.200 169.200 C 2.927 169.200,2.996 169.854,2.300 170.135 C 1.900 170.296,1.900 170.343,2.300 170.368 C 2.685 170.393,2.800 172.548,2.800 179.724 C 2.800 187.302,2.910 189.192,3.387 189.824 C 3.824 190.401,3.978 191.800,3.987 195.280 C 3.997 198.906,4.128 200.032,4.570 200.280 C 4.978 200.508,5.198 201.688,5.340 204.400 C 5.646 210.221,6.233 214.544,6.741 214.714 C 7.009 214.803,7.200 215.747,7.200 216.984 C 7.200 218.379,7.405 219.272,7.800 219.600 C 8.151 219.891,8.405 220.783,8.413 221.749 C 8.420 222.657,8.690 223.749,9.013 224.176 C 9.336 224.604,9.600 225.639,9.600 226.476 C 9.600 227.314,9.756 228.000,9.947 228.000 C 10.138 228.000,10.397 228.761,10.522 229.691 C 10.646 230.622,10.940 231.447,11.174 231.525 C 11.408 231.603,11.600 232.179,11.600 232.805 C 11.600 233.431,11.870 234.213,12.200 234.543 C 12.530 234.873,12.800 235.611,12.800 236.184 C 12.800 236.757,13.070 237.329,13.400 237.455 C 13.744 237.587,14.000 238.185,14.000 238.855 C 14.000 239.526,14.256 240.123,14.600 240.255 C 14.930 240.382,15.200 240.716,15.200 240.997 C 15.200 241.278,15.461 242.011,15.780 242.626 C 16.098 243.240,16.268 243.891,16.156 244.071 C 16.044 244.252,16.233 244.400,16.576 244.400 C 16.919 244.400,17.200 244.676,17.200 245.013 C 17.200 245.349,17.470 245.729,17.800 245.855 C 18.130 245.982,18.400 246.432,18.400 246.855 C 18.400 247.279,18.670 247.729,19.000 247.855 C 19.330 247.982,19.600 248.336,19.600 248.643 C 19.600 248.949,19.780 249.200,20.000 249.200 C 20.220 249.200,20.400 249.520,20.400 249.911 C 20.400 250.302,20.768 250.937,21.217 251.322 C 21.666 251.707,21.926 252.197,21.793 252.411 C 21.661 252.625,21.833 252.800,22.176 252.800 C 22.519 252.800,22.800 253.081,22.800 253.424 C 22.800 253.767,22.980 253.936,23.201 253.800 C 23.421 253.663,23.777 254.013,23.991 254.576 C 24.205 255.139,24.565 255.600,24.790 255.600 C 25.016 255.600,25.200 255.960,25.200 256.400 C 25.200 256.840,25.347 257.155,25.526 257.100 C 25.952 256.969,28.400 259.412,28.400 259.969 C 28.400 260.206,28.640 260.400,28.932 260.400 C 29.225 260.400,29.704 260.847,29.996 261.393 C 30.289 261.940,30.859 262.492,31.264 262.620 C 31.669 262.749,32.000 263.112,32.000 263.427 C 32.000 263.742,32.147 263.955,32.327 263.900 C 32.766 263.766,35.600 266.266,35.600 266.788 C 35.600 267.015,35.879 267.200,36.219 267.200 C 36.560 267.200,37.255 267.650,37.765 268.200 C 38.275 268.750,38.806 269.200,38.946 269.200 C 39.309 269.200,40.800 270.739,40.800 271.115 C 40.800 271.288,41.158 271.457,41.596 271.490 C 42.033 271.523,42.798 271.966,43.296 272.475 C 43.793 272.984,44.864 273.738,45.677 274.150 C 46.489 274.563,47.248 275.148,47.364 275.450 C 47.480 275.753,47.768 276.000,48.004 276.000 C 48.241 276.000,48.651 276.184,48.917 276.408 C 51.136 278.281,51.793 278.728,52.075 278.554 C 52.254 278.443,52.400 278.543,52.400 278.776 C 52.400 279.009,52.760 279.200,53.200 279.200 C 53.644 279.200,54.000 279.467,54.000 279.800 C 54.000 280.130,54.338 280.400,54.751 280.400 C 55.164 280.400,55.726 280.670,56.000 281.000 C 56.274 281.330,56.746 281.600,57.049 281.600 C 57.352 281.600,57.600 281.777,57.600 281.992 C 57.600 282.208,58.050 282.498,58.600 282.636 C 59.150 282.774,59.600 283.148,59.600 283.467 C 59.600 283.786,59.771 283.941,59.980 283.812 C 60.450 283.522,63.277 284.990,62.926 285.341 C 62.786 285.480,63.229 285.706,63.911 285.842 C 64.592 285.978,65.245 286.340,65.362 286.645 C 65.479 286.950,65.941 287.200,66.387 287.200 C 66.834 287.200,67.200 287.339,67.200 287.509 C 67.200 287.679,67.875 288.149,68.700 288.553 C 69.525 288.957,70.470 289.441,70.800 289.629 C 71.130 289.816,72.210 290.382,73.200 290.885 C 74.190 291.388,75.238 292.025,75.529 292.300 C 75.819 292.575,76.320 292.800,76.641 292.800 C 76.962 292.800,77.333 293.080,77.464 293.423 C 77.596 293.766,77.945 293.953,78.240 293.840 C 78.535 293.727,79.039 293.896,79.360 294.217 C 79.681 294.538,80.321 294.800,80.784 294.800 C 81.247 294.800,81.729 295.070,81.855 295.400 C 81.982 295.730,82.516 296.000,83.043 296.000 C 83.569 296.000,84.000 296.226,84.000 296.502 C 84.000 296.779,84.585 297.255,85.300 297.561 C 86.015 297.866,86.946 298.405,87.369 298.758 C 87.999 299.285,88.079 299.292,87.810 298.800 C 87.544 298.312,87.583 298.294,88.021 298.700 C 88.318 298.975,88.884 299.200,89.280 299.200 C 89.676 299.200,90.000 299.368,90.000 299.573 C 90.000 299.778,90.397 300.072,90.881 300.226 C 91.366 300.380,92.009 300.752,92.310 301.053 C 92.611 301.354,93.114 301.600,93.429 301.600 C 93.743 301.600,94.000 301.766,94.000 301.968 C 94.000 302.171,94.540 302.455,95.200 302.600 C 95.860 302.745,96.400 303.119,96.400 303.432 C 96.400 303.771,96.803 304.000,97.400 304.000 C 97.950 304.000,98.400 304.159,98.400 304.353 C 98.400 304.548,98.715 304.812,99.100 304.942 C 99.998 305.243,101.316 306.086,101.694 306.600 C 101.867 306.835,101.993 306.753,102.000 306.400 C 102.010 305.916,102.078 305.904,102.352 306.336 C 102.695 306.877,103.435 307.347,106.000 308.656 C 106.770 309.048,107.638 309.601,107.929 309.885 C 108.219 310.168,108.714 310.400,109.029 310.400 C 109.343 310.400,109.600 310.670,109.600 311.000 C 109.600 311.330,109.735 311.579,109.900 311.553 C 111.171 311.352,112.063 311.658,111.847 312.221 C 111.716 312.562,111.775 312.739,111.977 312.614 C 112.179 312.489,112.460 312.573,112.600 312.800 C 112.740 313.027,112.990 313.130,113.155 313.028 C 113.320 312.926,113.902 313.238,114.448 313.721 C 115.634 314.769,116.691 315.467,117.861 315.976 C 118.335 316.182,118.840 316.542,118.985 316.775 C 119.129 317.009,119.597 317.200,120.024 317.200 C 120.451 317.200,120.800 317.470,120.800 317.800 C 120.800 318.130,120.961 318.400,121.158 318.400 C 121.355 318.400,121.940 318.847,122.458 319.393 C 122.976 319.939,123.805 320.389,124.300 320.393 C 124.795 320.397,125.208 320.625,125.217 320.900 C 125.226 321.175,125.795 321.850,126.481 322.400 C 127.167 322.950,128.059 323.715,128.464 324.100 C 128.869 324.485,129.372 324.800,129.583 324.800 C 129.793 324.800,130.948 325.790,132.148 327.000 C 133.348 328.210,134.526 329.200,134.765 329.200 C 135.004 329.200,135.200 329.404,135.200 329.654 C 135.200 329.904,135.650 330.525,136.200 331.035 C 136.750 331.545,137.200 332.240,137.200 332.581 C 137.200 332.921,137.421 333.155,137.691 333.100 C 137.960 333.045,138.243 333.405,138.318 333.900 C 138.394 334.395,138.623 334.800,138.828 334.800 C 139.276 334.800,140.929 336.395,140.500 336.413 C 140.335 336.420,140.489 336.645,140.842 336.914 C 141.195 337.183,141.612 337.807,141.769 338.302 C 141.926 338.796,142.202 339.200,142.384 339.200 C 142.565 339.200,142.826 339.650,142.964 340.200 C 143.102 340.750,143.392 341.200,143.608 341.200 C 143.823 341.200,144.000 341.476,144.000 341.813 C 144.000 342.149,144.270 342.529,144.600 342.655 C 144.930 342.782,145.200 343.316,145.200 343.843 C 145.200 344.369,145.380 344.800,145.600 344.800 C 145.820 344.800,146.000 345.147,146.000 345.571 C 146.000 345.996,146.270 346.613,146.600 346.943 C 146.930 347.273,147.200 348.186,147.200 348.971 C 147.200 349.901,147.375 350.365,147.700 350.300 C 147.983 350.243,148.256 350.687,148.329 351.324 C 148.400 351.942,148.715 352.546,149.029 352.666 C 149.385 352.803,149.600 353.458,149.600 354.409 C 149.600 355.248,149.808 356.003,150.063 356.088 C 150.318 356.173,150.510 356.815,150.490 357.516 C 150.470 358.232,150.702 358.929,151.020 359.107 C 151.332 359.282,151.635 360.091,151.693 360.907 C 151.752 361.722,152.025 362.476,152.300 362.582 C 152.575 362.688,152.800 363.416,152.800 364.200 C 152.800 365.098,153.022 365.710,153.400 365.855 C 153.791 366.005,154.000 366.628,154.000 367.643 C 154.000 368.760,154.169 369.200,154.600 369.200 C 155.033 369.200,155.200 369.644,155.200 370.800 C 155.200 371.680,155.380 372.400,155.600 372.400 C 155.820 372.400,156.001 372.985,156.002 373.700 C 156.004 374.415,156.274 375.516,156.602 376.146 C 156.931 376.776,157.200 377.721,157.200 378.246 C 157.200 378.827,157.434 379.200,157.800 379.200 C 158.215 379.200,158.400 379.617,158.400 380.551 C 158.400 381.294,158.670 382.126,159.000 382.400 C 159.330 382.674,159.600 383.506,159.600 384.249 C 159.600 384.992,159.780 385.600,160.000 385.600 C 160.220 385.600,160.400 386.118,160.400 386.751 C 160.400 387.384,160.658 388.117,160.974 388.379 C 161.290 388.641,161.664 389.381,161.805 390.023 C 161.946 390.665,162.228 391.294,162.431 391.419 C 162.634 391.545,162.800 391.975,162.800 392.375 C 162.800 392.775,163.070 393.326,163.400 393.600 C 163.730 393.874,164.006 394.481,164.013 394.949 C 164.020 395.417,164.290 396.149,164.613 396.576 C 164.936 397.004,165.200 397.754,165.200 398.243 C 165.200 398.733,165.390 399.197,165.622 399.274 C 165.854 399.351,166.079 400.086,166.122 400.906 C 166.168 401.789,166.404 402.397,166.700 402.398 C 167.020 402.399,167.202 403.011,167.206 404.100 C 167.210 405.183,167.335 405.606,167.551 405.266 C 167.928 404.671,168.385 405.879,168.395 407.500 C 168.398 408.005,168.620 408.356,168.900 408.300 C 169.206 408.239,169.450 408.743,169.529 409.600 C 169.599 410.370,169.824 411.171,170.029 411.380 C 170.233 411.589,170.400 412.242,170.400 412.831 C 170.400 413.420,170.670 414.126,171.000 414.400 C 171.330 414.674,171.600 415.202,171.600 415.573 C 171.600 415.944,171.864 416.596,172.187 417.024 C 172.510 417.451,172.780 418.301,172.787 418.913 C 172.794 419.524,173.070 420.129,173.400 420.255 C 173.730 420.382,174.000 420.922,174.000 421.455 C 174.000 421.989,174.270 422.529,174.600 422.655 C 174.942 422.787,175.200 423.383,175.200 424.043 C 175.200 424.679,175.366 425.200,175.568 425.200 C 175.771 425.200,176.055 425.738,176.199 426.395 C 176.343 427.053,176.628 427.694,176.831 427.819 C 177.034 427.945,177.200 428.577,177.200 429.224 C 177.200 430.003,177.403 430.400,177.800 430.400 C 178.130 430.400,178.400 430.628,178.400 430.907 C 178.400 431.186,178.869 432.104,179.441 432.947 C 180.014 433.789,180.516 434.706,180.556 434.983 C 180.597 435.261,180.931 435.788,181.298 436.155 C 181.676 436.533,181.857 437.107,181.715 437.477 C 181.541 437.931,181.616 438.038,181.959 437.825 C 182.278 437.628,182.532 437.819,182.674 438.360 C 182.794 438.822,183.123 439.200,183.403 439.200 C 183.684 439.200,184.026 439.650,184.164 440.200 C 184.302 440.750,184.592 441.200,184.808 441.200 C 185.023 441.200,185.200 441.571,185.200 442.024 C 185.200 442.477,185.367 442.744,185.571 442.618 C 185.775 442.492,186.048 442.722,186.178 443.130 C 186.307 443.538,186.860 444.111,187.407 444.404 C 187.953 444.696,188.400 445.275,188.400 445.691 C 188.400 446.107,188.575 446.339,188.788 446.207 C 189.001 446.076,189.449 446.621,189.783 447.420 C 190.123 448.234,190.753 448.967,191.217 449.089 C 191.705 449.216,191.960 449.528,191.837 449.848 C 191.722 450.146,191.757 450.349,191.914 450.298 C 192.071 450.247,192.740 450.687,193.400 451.275 C 194.060 451.862,195.050 452.713,195.600 453.164 C 196.150 453.616,196.817 454.169,197.083 454.393 C 197.349 454.617,197.754 454.800,197.983 454.800 C 198.212 454.800,198.400 455.070,198.400 455.400 C 198.400 455.730,198.589 456.000,198.819 456.000 C 199.050 456.000,199.635 456.425,200.119 456.944 C 200.604 457.464,201.405 458.016,201.900 458.171 C 202.395 458.327,202.800 458.622,202.800 458.827 C 202.800 459.032,203.051 459.200,203.357 459.200 C 203.664 459.200,204.018 459.470,204.145 459.800 C 204.271 460.130,204.721 460.400,205.145 460.400 C 205.568 460.400,206.018 460.670,206.145 461.000 C 206.271 461.330,206.651 461.600,206.987 461.600 C 207.324 461.600,207.600 461.832,207.600 462.115 C 207.600 462.398,207.989 462.659,208.464 462.695 C 208.939 462.731,209.434 462.918,209.564 463.111 C 209.920 463.641,212.427 464.800,213.219 464.800 C 213.601 464.800,214.018 465.070,214.145 465.400 C 214.271 465.730,214.719 466.000,215.138 466.000 C 215.558 466.000,216.126 466.270,216.400 466.600 C 216.674 466.930,217.307 467.200,217.806 467.200 C 218.306 467.200,218.822 467.481,218.954 467.825 C 219.086 468.169,219.344 468.359,219.526 468.246 C 219.708 468.133,220.360 468.302,220.974 468.620 C 221.589 468.939,222.521 469.200,223.046 469.200 C 223.571 469.200,224.000 469.433,224.000 469.718 C 224.000 470.030,224.583 470.276,225.466 470.335 C 227.119 470.447,227.707 470.703,227.411 471.182 C 227.300 471.362,227.432 471.502,227.704 471.492 C 229.765 471.418,231.200 471.667,231.200 472.100 C 231.201 472.412,231.911 472.646,233.090 472.722 C 234.130 472.789,235.101 473.039,235.248 473.278 C 235.396 473.517,236.390 473.797,237.458 473.901 C 238.526 474.005,239.460 474.250,239.533 474.445 C 239.607 474.640,240.710 474.800,241.984 474.800 C 243.557 474.800,244.462 474.993,244.800 475.400 C 245.141 475.810,246.072 476.004,247.749 476.014 C 249.115 476.022,250.643 476.281,251.200 476.600 C 251.819 476.954,253.364 477.177,255.251 477.186 C 257.188 477.195,258.454 477.383,258.717 477.700 C 259.004 478.045,260.910 478.242,264.857 478.335 C 268.006 478.409,270.889 478.634,271.265 478.835 C 272.158 479.313,297.322 479.313,297.820 478.835 C 298.029 478.634,300.810 478.416,304.000 478.350 C 307.838 478.270,310.006 478.063,310.408 477.737 C 310.780 477.434,312.521 477.215,314.908 477.171 C 317.744 477.118,318.800 476.961,318.800 476.591 C 318.800 476.236,319.775 476.040,322.069 475.936 C 324.193 475.840,325.395 475.615,325.502 475.294 C 325.605 474.986,326.453 474.800,327.753 474.800 C 328.901 474.800,330.011 474.630,330.220 474.423 C 330.429 474.215,331.545 474.003,332.700 473.951 C 334.126 473.887,334.800 473.687,334.800 473.329 C 334.800 472.985,335.326 472.798,336.300 472.795 C 338.244 472.787,339.649 472.403,339.372 471.955 C 339.251 471.760,339.954 471.600,340.934 471.600 C 342.148 471.600,342.788 471.409,342.945 471.000 C 343.086 470.632,343.692 470.400,344.511 470.400 C 345.246 470.400,346.196 470.136,346.624 469.813 C 347.051 469.490,347.794 469.220,348.276 469.213 C 348.758 469.206,349.264 469.020,349.400 468.800 C 349.536 468.580,350.052 468.400,350.547 468.400 C 351.042 468.400,351.796 468.136,352.224 467.813 C 352.651 467.490,353.392 467.220,353.871 467.213 C 354.351 467.206,355.009 466.934,355.334 466.609 C 355.659 466.284,356.469 465.977,357.135 465.926 C 357.800 465.876,358.312 465.646,358.272 465.417 C 358.233 465.188,358.695 464.943,359.300 464.873 C 359.905 464.804,360.400 464.579,360.400 464.373 C 360.400 464.168,360.856 464.000,361.413 464.000 C 361.969 464.000,362.529 463.730,362.655 463.400 C 362.782 463.070,363.316 462.800,363.843 462.800 C 364.427 462.800,364.800 462.566,364.800 462.200 C 364.800 461.825,365.179 461.600,365.813 461.600 C 366.369 461.600,366.922 461.346,367.041 461.036 C 367.161 460.726,367.653 460.373,368.137 460.252 C 368.620 460.130,369.422 459.652,369.919 459.190 C 370.415 458.727,371.177 458.322,371.611 458.289 C 372.045 458.257,372.400 458.105,372.400 457.953 C 372.400 457.801,373.210 457.201,374.200 456.621 C 375.190 456.041,376.000 455.394,376.000 455.183 C 376.000 454.972,376.270 454.800,376.600 454.800 C 376.930 454.800,377.200 454.616,377.200 454.390 C 377.200 454.165,377.650 453.809,378.200 453.600 C 378.750 453.391,379.200 453.005,379.200 452.743 C 379.200 452.481,379.311 452.378,379.447 452.513 C 379.582 452.649,380.461 451.959,381.399 450.980 C 382.337 450.001,383.316 449.200,383.576 449.200 C 383.835 449.200,383.935 449.019,383.798 448.797 C 383.661 448.576,383.831 448.286,384.175 448.154 C 384.519 448.022,384.800 447.664,384.800 447.357 C 384.800 447.051,384.977 446.800,385.192 446.800 C 385.408 446.800,385.698 446.350,385.836 445.800 C 385.974 445.250,386.337 444.800,386.643 444.800 C 386.950 444.800,387.200 444.530,387.200 444.200 C 387.200 443.870,387.346 443.600,387.524 443.600 C 387.702 443.600,388.287 442.612,388.824 441.404 C 389.361 440.196,389.935 439.206,390.100 439.204 C 390.265 439.202,390.400 438.772,390.400 438.249 C 390.400 437.726,390.670 437.074,391.000 436.800 C 391.330 436.526,391.600 435.694,391.600 434.951 C 391.600 434.087,391.794 433.600,392.137 433.600 C 392.524 433.600,392.698 432.854,392.760 430.927 C 392.820 429.073,393.034 428.117,393.456 427.808 C 394.270 427.213,394.123 404.362,393.300 403.539 C 392.994 403.234,392.800 401.938,392.800 400.196 C 392.800 398.315,392.601 397.090,392.213 396.576 C 391.846 396.092,391.621 394.861,391.613 393.300 C 391.605 391.815,391.428 390.800,391.176 390.800 C 390.943 390.800,390.856 390.632,390.983 390.428 C 391.109 390.223,391.030 389.942,390.807 389.804 C 390.583 389.666,390.400 388.573,390.400 387.376 C 390.400 386.179,390.246 385.200,390.057 385.200 C 389.868 385.200,389.597 384.085,389.455 382.722 C 389.313 381.360,389.037 380.145,388.842 380.022 C 388.647 379.900,388.398 378.900,388.289 377.800 C 388.053 375.420,387.853 374.520,387.478 374.145 C 387.325 373.992,387.200 372.920,387.200 371.762 C 387.200 370.424,386.981 369.438,386.600 369.057 C 386.172 368.629,386.000 367.586,386.000 365.416 C 386.000 363.082,385.861 362.321,385.400 362.145 C 384.944 361.970,384.800 361.226,384.800 359.037 C 384.800 357.455,384.630 355.989,384.423 355.780 C 384.216 355.571,384.005 354.373,383.955 353.117 C 383.902 351.776,383.665 350.757,383.381 350.648 C 383.094 350.538,382.827 349.359,382.725 347.757 C 382.623 346.159,382.358 344.986,382.076 344.892 C 381.793 344.798,381.600 343.929,381.600 342.754 C 381.600 341.364,381.421 340.706,381.000 340.545 C 380.570 340.380,380.400 339.708,380.400 338.181 C 380.400 337.007,380.243 335.950,380.052 335.832 C 379.860 335.714,379.615 334.694,379.506 333.566 C 379.398 332.438,379.143 331.399,378.940 331.257 C 378.737 331.116,378.518 330.280,378.454 329.400 C 378.390 328.520,378.082 327.401,377.769 326.914 C 377.456 326.427,377.200 325.414,377.200 324.663 C 377.200 323.912,376.936 323.079,376.613 322.811 C 376.290 322.543,376.041 322.206,376.060 322.062 C 376.278 320.411,375.916 318.400,375.400 318.400 C 374.948 318.400,374.800 317.914,374.800 316.424 C 374.800 315.337,374.620 314.336,374.400 314.200 C 374.180 314.064,374.000 313.278,374.000 312.453 C 374.000 311.628,373.736 310.604,373.413 310.176 C 373.090 309.749,372.820 308.657,372.813 307.749 C 372.805 306.783,372.551 305.891,372.200 305.600 C 371.870 305.326,371.594 304.449,371.587 303.651 C 371.580 302.853,371.310 301.851,370.987 301.424 C 370.664 300.996,370.400 299.886,370.400 298.957 C 370.400 298.027,370.240 297.207,370.045 297.133 C 369.850 297.060,369.603 296.108,369.497 295.017 C 369.391 293.927,369.100 292.967,368.852 292.884 C 368.584 292.795,368.400 291.770,368.400 290.367 C 368.400 288.691,368.255 288.029,367.902 288.100 C 367.570 288.167,367.337 287.453,367.202 285.961 C 367.091 284.730,366.797 283.470,366.549 283.161 C 366.301 282.853,366.013 281.529,365.909 280.220 C 365.806 278.911,365.514 277.771,365.260 277.687 C 364.989 277.596,364.800 276.645,364.800 275.367 C 364.800 274.175,364.640 273.200,364.444 273.200 C 364.248 273.200,364.019 271.841,363.935 270.180 C 363.851 268.519,363.588 267.034,363.350 266.880 C 363.111 266.725,362.882 265.166,362.839 263.400 C 362.784 261.148,362.589 260.068,362.180 259.756 C 361.740 259.419,361.600 258.328,361.600 255.243 C 361.600 251.996,361.479 251.128,361.000 250.945 C 360.482 250.746,360.400 248.770,360.400 236.534 C 360.400 228.288,360.550 222.445,360.758 222.574 C 361.353 222.942,361.599 221.702,361.613 218.267 C 361.621 216.030,361.811 214.755,362.213 214.224 C 362.536 213.796,362.800 212.761,362.800 211.924 C 362.800 211.086,362.993 210.400,363.229 210.400 C 363.464 210.400,363.914 210.143,364.229 209.829 C 364.543 209.514,364.800 209.064,364.800 208.829 C 364.800 208.593,365.070 208.400,365.400 208.400 C 365.730 208.400,366.000 208.130,366.000 207.800 C 366.000 207.470,366.165 207.200,366.367 207.200 C 366.872 207.200,368.400 204.662,368.400 203.824 C 368.400 203.449,368.640 202.903,368.933 202.610 C 369.239 202.303,369.504 201.011,369.556 199.568 C 369.606 198.188,369.821 196.735,370.033 196.338 C 370.520 195.429,370.496 167.998,370.008 167.410 C 369.815 167.177,369.599 164.572,369.528 161.622 C 369.442 158.017,369.236 156.093,368.900 155.757 C 368.580 155.437,368.400 154.053,368.400 151.905 C 368.400 149.577,368.221 148.316,367.813 147.776 C 367.425 147.263,367.221 146.012,367.213 144.087 C 367.203 141.876,367.056 141.119,366.600 140.945 C 366.154 140.773,366.000 140.063,366.000 138.177 C 366.000 136.386,365.831 135.545,365.424 135.318 C 365.038 135.101,364.820 134.182,364.759 132.514 C 364.710 131.150,364.519 130.126,364.335 130.240 C 364.151 130.354,364.000 129.731,364.000 128.856 C 364.000 126.982,363.659 125.916,363.158 126.226 C 362.961 126.348,362.800 125.559,362.800 124.473 C 362.800 123.205,362.585 122.320,362.200 122.000 C 361.855 121.714,361.600 120.842,361.600 119.951 C 361.600 118.839,361.430 118.400,361.000 118.400 C 360.557 118.400,360.400 117.936,360.400 116.624 C 360.400 115.647,360.220 114.736,360.000 114.600 C 359.780 114.464,359.600 113.948,359.600 113.453 C 359.600 112.958,359.336 112.204,359.013 111.776 C 358.690 111.349,358.420 110.608,358.413 110.129 C 358.406 109.649,358.130 108.987,357.800 108.657 C 357.470 108.327,357.200 107.499,357.200 106.816 C 357.200 106.082,356.955 105.481,356.600 105.345 C 356.256 105.213,356.000 104.615,356.000 103.945 C 356.000 103.274,355.744 102.677,355.400 102.545 C 355.062 102.415,354.800 101.819,354.800 101.181 C 354.800 100.557,354.620 99.936,354.400 99.800 C 354.180 99.664,354.000 99.108,354.000 98.564 C 354.000 98.020,353.730 97.471,353.400 97.345 C 353.060 97.214,352.800 96.618,352.800 95.970 C 352.800 95.117,352.647 94.884,352.200 95.055 C 351.745 95.230,351.600 94.982,351.600 94.030 C 351.600 93.283,351.357 92.682,351.000 92.545 C 350.670 92.418,350.400 92.083,350.400 91.801 C 350.400 91.518,350.052 90.511,349.627 89.561 C 349.202 88.612,348.960 87.665,349.089 87.456 C 349.218 87.247,349.116 87.205,348.862 87.362 C 348.569 87.543,348.400 87.341,348.400 86.811 C 348.400 86.351,348.130 85.871,347.800 85.745 C 347.470 85.618,347.200 85.174,347.200 84.757 C 347.200 84.341,346.930 84.000,346.600 84.000 C 346.225 84.000,346.000 83.621,346.000 82.987 C 346.000 82.431,345.730 81.871,345.400 81.745 C 345.070 81.618,344.800 81.184,344.800 80.781 C 344.800 80.377,344.620 79.936,344.400 79.800 C 344.180 79.664,344.000 79.223,344.000 78.819 C 344.000 78.416,343.730 77.982,343.400 77.855 C 343.070 77.729,342.800 77.369,342.800 77.055 C 342.800 76.742,342.530 76.382,342.200 76.255 C 341.870 76.129,341.600 75.654,341.600 75.200 C 341.600 74.746,341.330 74.271,341.000 74.145 C 340.670 74.018,340.400 73.664,340.400 73.357 C 340.400 73.051,340.234 72.800,340.032 72.800 C 339.829 72.800,339.542 72.247,339.394 71.571 C 339.245 70.896,339.036 70.431,338.929 70.538 C 338.614 70.853,337.200 69.257,337.200 68.587 C 337.200 68.251,336.930 67.871,336.600 67.745 C 336.270 67.618,336.000 67.174,336.000 66.757 C 336.000 66.341,335.730 66.000,335.400 66.000 C 335.070 66.000,334.800 65.730,334.800 65.400 C 334.800 65.070,334.632 64.800,334.427 64.800 C 334.222 64.800,333.927 64.395,333.771 63.900 C 333.616 63.405,333.105 62.640,332.636 62.200 C 332.167 61.760,331.367 60.725,330.859 59.900 C 330.351 59.075,329.739 58.400,329.501 58.400 C 329.262 58.400,329.186 58.281,329.331 58.136 C 329.476 57.991,329.233 57.618,328.791 57.309 C 328.348 56.999,328.093 56.573,328.223 56.363 C 328.353 56.152,328.288 56.030,328.078 56.090 C 327.868 56.151,327.233 55.705,326.667 55.100 C 326.101 54.495,325.450 54.000,325.219 54.000 C 324.989 54.000,324.800 53.812,324.800 53.583 C 324.800 53.096,324.296 52.445,322.472 50.575 C 321.742 49.826,321.257 49.032,321.393 48.811 C 321.538 48.577,321.382 48.509,321.021 48.647 C 320.630 48.797,320.400 48.664,320.400 48.286 C 320.400 47.956,320.130 47.582,319.800 47.455 C 319.470 47.329,319.200 46.949,319.200 46.613 C 319.200 46.276,318.975 46.045,318.700 46.100 C 318.425 46.155,318.238 45.996,318.284 45.747 C 318.331 45.498,318.061 45.318,317.684 45.347 C 317.258 45.380,317.021 45.133,317.057 44.692 C 317.093 44.243,316.874 44.024,316.457 44.092 C 316.086 44.153,315.848 43.969,315.910 43.670 C 315.970 43.379,315.855 43.242,315.654 43.367 C 315.452 43.491,314.994 43.145,314.635 42.597 C 314.275 42.048,313.716 41.600,313.391 41.600 C 313.066 41.600,312.800 41.330,312.800 41.000 C 312.800 40.670,312.530 40.400,312.200 40.400 C 311.870 40.400,311.600 40.220,311.600 40.000 C 311.600 39.780,311.426 39.600,311.214 39.600 C 311.001 39.600,310.275 39.060,309.600 38.400 C 308.925 37.740,308.199 37.200,307.986 37.200 C 307.774 37.200,307.600 36.930,307.600 36.600 C 307.600 36.267,307.244 36.000,306.800 36.000 C 306.360 36.000,306.000 35.820,306.000 35.600 C 306.000 35.380,305.730 35.200,305.400 35.200 C 305.070 35.200,304.800 34.930,304.800 34.600 C 304.800 34.270,304.519 34.000,304.176 34.000 C 303.833 34.000,303.661 33.825,303.793 33.612 C 303.925 33.398,303.549 33.102,302.958 32.954 C 301.775 32.657,300.400 31.463,300.400 30.733 C 300.400 30.477,300.285 30.382,300.144 30.523 C 299.837 30.829,297.534 29.609,297.080 28.900 C 296.904 28.625,296.499 28.400,296.180 28.400 C 295.861 28.400,295.600 28.130,295.600 27.800 C 295.600 27.470,295.465 27.221,295.300 27.247 C 294.378 27.393,293.600 27.136,293.600 26.685 C 293.600 26.402,293.198 26.140,292.706 26.103 C 292.214 26.066,291.749 25.848,291.673 25.618 C 291.596 25.388,291.298 25.200,291.009 25.200 C 290.721 25.200,290.382 24.930,290.255 24.600 C 290.129 24.270,289.589 24.000,289.055 24.000 C 288.522 24.000,287.982 23.730,287.855 23.400 C 287.729 23.070,287.279 22.800,286.855 22.800 C 286.432 22.800,285.982 22.530,285.855 22.200 C 285.729 21.870,285.259 21.600,284.813 21.600 C 284.366 21.600,284.000 21.433,284.000 21.229 C 284.000 20.816,281.751 19.600,280.988 19.600 C 280.718 19.600,280.274 19.330,280.000 19.000 C 279.726 18.670,279.003 18.400,278.394 18.400 C 277.778 18.400,277.183 18.134,277.055 17.800 C 276.929 17.470,276.447 17.200,275.984 17.200 C 275.521 17.200,274.873 16.930,274.543 16.600 C 274.213 16.270,273.596 16.000,273.171 16.000 C 272.747 16.000,272.400 15.820,272.400 15.600 C 272.400 15.380,271.995 15.194,271.500 15.187 C 271.005 15.180,270.251 14.910,269.824 14.587 C 269.396 14.264,268.654 14.000,268.173 14.000 C 267.692 14.000,267.074 13.730,266.800 13.400 C 266.526 13.070,265.806 12.800,265.200 12.800 C 264.594 12.800,263.874 12.530,263.600 12.200 C 263.326 11.870,262.494 11.600,261.751 11.600 C 260.912 11.600,260.400 11.404,260.400 11.082 C 260.400 10.768,259.810 10.524,258.901 10.463 C 258.076 10.407,257.230 10.190,257.021 9.981 C 256.811 9.771,255.978 9.600,255.169 9.600 C 254.349 9.600,253.477 9.334,253.200 9.000 C 252.913 8.654,252.040 8.400,251.138 8.400 C 250.118 8.400,249.495 8.192,249.345 7.800 C 249.176 7.361,248.484 7.200,246.757 7.200 C 245.124 7.200,244.400 7.045,244.400 6.694 C 244.400 6.353,243.585 6.149,241.900 6.067 C 240.525 6.001,239.340 5.778,239.267 5.573 C 239.193 5.368,237.695 5.200,235.938 5.200 C 233.631 5.200,232.576 5.033,232.143 4.600 C 231.650 4.107,230.124 4.000,223.571 4.000 C 218.524 4.000,215.600 3.853,215.600 3.600 C 215.600 3.380,215.060 3.200,214.400 3.200 C 213.740 3.200,213.200 3.380,213.200 3.600 M345.639 176.064 C 345.882 176.456,346.511 182.649,346.463 184.169 C 346.408 185.928,345.139 186.507,342.481 185.984 C 340.664 185.627,339.722 185.619,338.764 185.953 C 338.058 186.199,335.133 186.400,332.264 186.400 C 329.395 186.400,326.047 186.582,324.824 186.805 C 323.601 187.028,321.430 187.343,320.000 187.507 L 317.400 187.803 317.540 189.382 C 317.618 190.250,317.839 191.377,318.032 191.885 C 319.816 196.577,313.125 203.717,307.530 203.092 C 303.959 202.693,299.200 199.580,299.200 197.643 C 299.200 197.277,298.914 196.570,298.565 196.072 C 298.087 195.389,297.962 194.407,298.056 192.083 L 298.181 189.000 296.590 189.107 C 295.716 189.167,291.940 189.375,288.200 189.571 C 284.444 189.768,280.333 190.213,279.016 190.564 C 273.247 192.103,272.563 191.646,272.187 185.999 C 271.804 180.237,271.268 180.572,281.800 180.011 C 286.420 179.766,291.010 179.400,292.000 179.200 C 292.990 178.999,295.452 178.827,297.471 178.817 C 299.490 178.808,302.460 178.617,304.071 178.394 C 305.682 178.170,309.700 177.817,313.000 177.609 C 318.942 177.234,332.856 176.200,339.800 175.618 C 343.638 175.296,345.240 175.418,345.639 176.064 M225.686 185.100 C 226.102 185.577,226.366 187.031,226.514 189.660 C 226.841 195.477,227.288 195.196,217.677 195.217 C 213.345 195.227,208.990 195.429,208.000 195.665 C 207.010 195.902,203.140 196.234,199.400 196.404 C 195.660 196.573,192.240 196.811,191.800 196.932 C 191.360 197.053,190.486 197.261,189.857 197.394 C 188.810 197.616,188.737 197.744,188.988 198.918 C 191.391 210.163,182.139 217.205,173.289 210.868 C 170.892 209.152,168.341 202.653,169.565 201.380 C 169.766 201.171,169.991 200.550,170.065 200.000 L 170.200 199.000 166.600 199.080 C 158.477 199.259,149.254 199.955,147.016 200.558 C 141.503 202.043,141.027 201.684,140.657 195.760 C 140.312 190.244,139.870 190.528,149.618 190.013 C 153.898 189.788,158.480 189.423,159.800 189.204 C 161.120 188.984,163.730 188.798,165.600 188.790 C 167.470 188.782,170.350 188.598,172.000 188.381 C 173.650 188.164,177.790 187.804,181.200 187.581 C 184.610 187.358,190.820 186.915,195.000 186.595 C 199.180 186.276,205.570 185.818,209.200 185.578 C 212.830 185.338,216.790 184.997,218.000 184.820 C 222.087 184.221,225.013 184.328,225.686 185.100 M341.379 187.700 C 341.833 189.798,342.399 196.049,342.421 199.200 C 342.433 201.070,342.679 204.130,342.966 206.000 C 343.880 211.958,342.690 213.162,335.402 213.652 C 332.761 213.829,327.090 214.255,322.800 214.599 C 318.510 214.943,312.210 215.397,308.800 215.608 C 305.390 215.820,301.340 216.168,299.800 216.383 C 298.260 216.598,295.650 216.779,294.000 216.785 C 292.350 216.791,289.186 217.005,286.969 217.262 C 280.071 218.060,278.802 216.734,278.797 208.722 C 278.795 206.235,278.610 203.066,278.385 201.681 C 278.160 200.295,277.937 197.415,277.888 195.281 L 277.800 191.400 280.600 191.119 C 286.052 190.571,293.428 190.023,295.500 190.012 L 297.600 190.000 297.600 193.001 C 297.600 201.140,305.759 206.105,313.036 202.395 C 315.516 201.130,318.000 198.351,318.000 196.840 C 318.000 196.404,318.160 195.948,318.356 195.827 C 318.990 195.435,319.095 192.646,318.545 190.800 C 317.699 187.960,317.660 188.003,321.100 187.973 C 322.805 187.959,326.090 187.709,328.400 187.418 C 335.749 186.493,341.144 186.610,341.379 187.700 M221.270 200.800 C 221.419 203.550,221.728 207.150,221.958 208.800 C 222.188 210.450,222.381 213.207,222.388 214.926 C 222.394 216.646,222.580 218.390,222.801 218.802 C 223.069 219.303,223.069 219.634,222.801 219.799 C 222.580 219.936,222.400 220.384,222.400 220.796 C 222.400 221.208,221.836 221.947,221.147 222.438 C 219.816 223.385,220.451 223.309,205.000 224.370 C 201.480 224.612,197.176 224.987,195.436 225.205 C 193.696 225.422,190.816 225.606,189.036 225.613 C 187.256 225.620,183.910 225.884,181.600 226.200 C 179.290 226.516,175.870 226.782,174.000 226.791 C 172.130 226.799,168.447 227.075,165.815 227.403 C 163.184 227.731,159.550 228.000,157.741 228.000 C 155.932 228.000,153.945 228.193,153.326 228.430 C 152.498 228.745,151.804 228.729,150.706 228.367 C 147.791 227.408,147.770 227.326,146.794 213.600 C 146.552 210.190,146.208 206.140,146.030 204.600 C 145.605 200.917,144.331 201.325,159.730 200.218 C 169.731 199.498,169.141 199.391,168.902 201.888 C 168.497 206.109,170.692 210.204,174.542 212.412 C 182.658 217.067,192.926 208.590,189.800 199.815 C 189.490 198.944,189.273 198.209,189.318 198.182 C 189.653 197.983,199.342 197.061,204.400 196.746 C 207.810 196.534,211.950 196.212,213.600 196.031 C 215.250 195.849,217.590 195.723,218.800 195.750 L 221.000 195.800 221.270 200.800 M262.613 219.913 C 273.644 222.289,284.146 234.502,292.785 255.000 C 293.249 256.100,293.802 257.313,294.014 257.695 C 294.226 258.077,294.400 258.589,294.400 258.834 C 294.400 259.079,294.646 259.846,294.946 260.540 C 295.839 262.603,296.672 264.791,298.014 268.600 C 298.712 270.580,299.430 272.560,299.610 273.000 C 299.791 273.440,300.241 274.700,300.611 275.800 C 301.312 277.882,301.541 278.471,302.556 280.800 C 303.722 283.478,305.643 289.826,307.215 296.200 C 307.886 298.917,308.166 307.030,307.658 309.000 C 307.431 309.880,307.081 311.230,306.880 312.000 C 306.104 314.975,304.555 317.471,301.790 320.200 C 296.731 325.193,291.998 326.177,270.754 326.652 C 257.761 326.943,257.522 326.922,250.400 324.900 C 246.662 323.839,239.768 320.625,238.490 319.347 C 238.189 319.046,237.785 318.800,237.591 318.800 C 237.010 318.800,231.862 313.534,230.551 311.600 C 224.014 301.954,224.810 289.868,232.475 282.403 C 236.554 278.429,243.185 276.450,246.546 278.202 C 247.176 278.531,247.906 278.800,248.167 278.800 C 250.939 278.800,253.260 285.754,251.573 289.006 C 250.848 290.405,250.200 291.117,248.090 292.835 C 247.809 293.064,246.464 293.374,245.100 293.525 L 242.621 293.800 242.292 295.600 C 241.035 302.470,246.219 307.533,257.400 310.355 C 262.740 311.703,288.521 310.613,290.705 308.947 L 292.048 307.922 291.877 303.661 C 291.707 299.445,291.241 296.338,290.489 294.400 C 290.275 293.850,289.792 292.410,289.414 291.200 C 289.036 289.990,288.490 288.460,288.201 287.800 C 287.911 287.140,287.369 285.790,286.996 284.800 C 286.623 283.810,286.156 282.687,285.959 282.305 C 285.762 281.923,285.600 281.345,285.600 281.019 C 285.600 280.693,285.340 279.836,285.023 279.114 C 284.706 278.391,283.703 275.730,282.795 273.200 C 280.364 266.425,279.841 265.102,277.188 259.000 C 276.440 257.278,274.846 254.030,272.479 249.400 C 271.818 248.108,269.186 244.034,268.326 242.973 C 264.694 238.492,261.279 235.883,258.478 235.450 C 252.564 234.536,249.236 230.097,250.674 225.041 C 252.059 220.173,255.987 218.486,262.613 219.913 M325.034 367.427 C 334.327 370.129,331.482 385.834,320.400 393.008 C 307.526 401.342,283.128 403.380,270.600 397.168 C 258.910 391.371,255.901 376.759,265.785 373.784 C 270.058 372.499,275.600 376.342,275.600 380.592 C 275.600 386.088,298.177 386.222,309.724 380.794 C 312.739 379.376,314.400 377.731,314.400 376.161 C 314.400 372.275,316.917 368.416,320.108 367.412 C 322.365 366.701,322.539 366.702,325.034 367.427 " stroke="none" fill="#4bb3ab" fill-rule="evenodd"></path><path id="path1" d="M328.400 187.418 C 326.090 187.709,322.805 187.959,321.100 187.973 C 317.660 188.003,317.699 187.960,318.545 190.800 C 319.095 192.646,318.990 195.435,318.356 195.827 C 318.160 195.948,318.000 196.404,318.000 196.840 C 318.000 198.351,315.516 201.130,313.036 202.395 C 305.759 206.105,297.600 201.140,297.600 193.001 L 297.600 190.000 295.500 190.012 C 293.428 190.023,286.052 190.571,280.600 191.119 L 277.800 191.400 277.888 195.281 C 277.937 197.415,278.160 200.295,278.385 201.681 C 278.610 203.066,278.795 206.235,278.797 208.722 C 278.802 216.734,280.071 218.060,286.969 217.262 C 289.186 217.005,292.350 216.791,294.000 216.785 C 295.650 216.779,298.260 216.598,299.800 216.383 C 301.340 216.168,305.390 215.820,308.800 215.608 C 312.210 215.397,318.510 214.943,322.800 214.599 C 327.090 214.255,332.761 213.829,335.402 213.652 C 342.690 213.162,343.880 211.958,342.966 206.000 C 342.679 204.130,342.433 201.070,342.421 199.200 C 342.399 196.049,341.833 189.798,341.379 187.700 C 341.144 186.610,335.749 186.493,328.400 187.418 M213.600 196.031 C 211.950 196.212,207.810 196.534,204.400 196.746 C 199.342 197.061,189.653 197.983,189.318 198.182 C 189.273 198.209,189.490 198.944,189.800 199.815 C 192.926 208.590,182.658 217.067,174.542 212.412 C 170.692 210.204,168.497 206.109,168.902 201.888 C 169.141 199.391,169.731 199.498,159.730 200.218 C 144.331 201.325,145.605 200.917,146.030 204.600 C 146.208 206.140,146.552 210.190,146.794 213.600 C 147.770 227.326,147.791 227.408,150.706 228.367 C 151.804 228.729,152.498 228.745,153.326 228.430 C 153.945 228.193,155.932 228.000,157.741 228.000 C 159.550 228.000,163.184 227.731,165.815 227.403 C 168.447 227.075,172.130 226.799,174.000 226.791 C 175.870 226.782,179.290 226.516,181.600 226.200 C 183.910 225.884,187.256 225.620,189.036 225.613 C 190.816 225.606,193.696 225.422,195.436 225.205 C 197.176 224.987,201.480 224.612,205.000 224.370 C 220.451 223.309,219.816 223.385,221.147 222.438 C 221.836 221.947,222.400 221.208,222.400 220.796 C 222.400 220.384,222.580 219.936,222.801 219.799 C 223.069 219.634,223.069 219.303,222.801 218.802 C 222.580 218.390,222.394 216.646,222.388 214.926 C 222.381 213.207,222.188 210.450,221.958 208.800 C 221.728 207.150,221.419 203.550,221.270 200.800 L 221.000 195.800 218.800 195.750 C 217.590 195.723,215.250 195.849,213.600 196.031 " stroke="none" fill="#e9ebea" fill-rule="evenodd"></path><path id="path2" d="M321.093 49.200 C 321.470 49.640,321.916 50.000,322.085 50.000 C 322.254 50.000,322.084 49.640,321.707 49.200 C 321.330 48.760,320.884 48.400,320.715 48.400 C 320.546 48.400,320.716 48.760,321.093 49.200 M1.746 159.800 C 1.747 162.000,1.814 162.849,1.895 161.687 C 1.976 160.524,1.976 158.724,1.893 157.687 C 1.811 156.649,1.745 157.600,1.746 159.800 M339.800 175.618 C 332.856 176.200,318.942 177.234,313.000 177.609 C 309.700 177.817,305.682 178.170,304.071 178.394 C 302.460 178.617,299.490 178.808,297.471 178.817 C 295.452 178.827,292.990 178.999,292.000 179.200 C 291.010 179.400,286.420 179.766,281.800 180.011 C 271.268 180.572,271.804 180.237,272.187 185.999 C 272.563 191.646,273.247 192.103,279.016 190.564 C 280.357 190.206,284.376 189.779,288.200 189.588 C 291.940 189.401,295.673 189.128,296.496 188.981 C 297.676 188.770,298.045 188.851,298.243 189.367 C 298.428 189.849,298.629 189.908,299.009 189.592 C 299.531 189.159,307.369 188.397,313.600 188.173 C 315.470 188.106,317.270 187.956,317.600 187.840 C 318.922 187.374,325.760 186.697,332.000 186.414 C 335.630 186.249,338.987 185.982,339.461 185.821 C 339.935 185.659,341.352 185.741,342.611 186.002 C 346.324 186.773,346.721 186.098,346.187 179.932 C 345.765 175.052,345.850 175.110,339.800 175.618 M218.000 184.820 C 216.790 184.997,212.830 185.338,209.200 185.578 C 205.570 185.818,199.180 186.276,195.000 186.595 C 190.820 186.915,184.610 187.358,181.200 187.581 C 177.790 187.804,173.650 188.164,172.000 188.381 C 170.350 188.598,167.470 188.782,165.600 188.790 C 163.730 188.798,161.120 188.984,159.800 189.204 C 158.480 189.423,153.898 189.788,149.618 190.013 C 139.870 190.528,140.312 190.244,140.657 195.760 C 141.027 201.684,141.503 202.043,147.016 200.558 C 149.371 199.924,157.901 199.303,168.400 199.002 C 171.370 198.917,175.420 198.624,177.400 198.351 C 179.380 198.079,182.800 197.825,185.000 197.787 C 187.200 197.749,189.810 197.498,190.800 197.228 C 191.790 196.958,195.660 196.593,199.400 196.416 C 203.140 196.240,207.010 195.902,208.000 195.665 C 208.990 195.429,213.345 195.227,217.677 195.217 C 227.288 195.196,226.841 195.477,226.514 189.660 C 226.203 184.135,225.481 183.725,218.000 184.820 M255.550 219.804 C 247.121 222.496,249.279 234.028,258.478 235.450 C 262.591 236.085,268.870 242.342,272.479 249.400 C 274.846 254.030,276.440 257.278,277.188 259.000 C 279.841 265.102,280.364 266.425,282.795 273.200 C 283.703 275.730,284.706 278.391,285.023 279.114 C 285.340 279.836,285.600 280.693,285.600 281.019 C 285.600 281.345,285.762 281.923,285.959 282.305 C 286.156 282.687,286.623 283.810,286.996 284.800 C 287.369 285.790,287.911 287.140,288.201 287.800 C 288.490 288.460,289.036 289.990,289.414 291.200 C 289.792 292.410,290.275 293.850,290.489 294.400 C 291.241 296.338,291.707 299.445,291.877 303.661 L 292.048 307.922 290.705 308.947 C 288.521 310.613,262.740 311.703,257.400 310.355 C 246.219 307.533,241.035 302.470,242.292 295.600 L 242.621 293.800 245.100 293.525 C 246.464 293.374,247.809 293.064,248.090 292.835 C 250.200 291.117,250.848 290.405,251.573 289.006 C 253.260 285.754,250.939 278.800,248.167 278.800 C 247.906 278.800,247.176 278.531,246.546 278.202 C 243.185 276.450,236.554 278.429,232.475 282.403 C 224.810 289.868,224.014 301.954,230.551 311.600 C 231.862 313.534,237.010 318.800,237.591 318.800 C 237.785 318.800,238.189 319.046,238.490 319.347 C 239.768 320.625,246.662 323.839,250.400 324.900 C 257.522 326.922,257.761 326.943,270.754 326.652 C 291.998 326.177,296.731 325.193,301.790 320.200 C 304.555 317.471,306.104 314.975,306.880 312.000 C 307.081 311.230,307.431 309.880,307.658 309.000 C 308.166 307.030,307.886 298.917,307.215 296.200 C 305.643 289.826,303.722 283.478,302.556 280.800 C 301.541 278.471,301.312 277.882,300.611 275.800 C 300.241 274.700,299.791 273.440,299.610 273.000 C 299.430 272.560,298.712 270.580,298.014 268.600 C 296.672 264.791,295.839 262.603,294.946 260.540 C 294.646 259.846,294.400 259.079,294.400 258.834 C 294.400 258.589,294.226 258.077,294.014 257.695 C 293.802 257.313,293.249 256.100,292.785 255.000 C 282.366 230.279,267.310 216.048,255.550 219.804 M45.024 274.187 C 45.451 274.510,45.980 274.775,46.200 274.775 C 46.420 274.775,46.251 274.510,45.824 274.187 C 45.396 273.864,44.867 273.600,44.647 273.600 C 44.427 273.600,44.596 273.864,45.024 274.187 M320.108 367.412 C 316.917 368.416,314.400 372.275,314.400 376.161 C 314.400 377.731,312.739 379.376,309.724 380.794 C 298.177 386.222,275.600 386.088,275.600 380.592 C 275.600 376.342,270.058 372.499,265.785 373.784 C 257.988 376.131,257.912 386.536,265.638 393.902 C 277.148 404.874,311.737 402.331,324.459 389.578 C 334.452 379.560,331.371 363.866,320.108 367.412 " stroke="none" fill="#04948c" fill-rule="evenodd"></path><path id="path3" d="M306.933 188.767 C 304.696 188.895,302.792 189.090,302.700 189.200 C 298.481 194.293,304.843 202.258,310.716 199.237 C 315.556 196.747,316.471 188.105,311.856 188.467 C 311.385 188.504,309.170 188.639,306.933 188.767 M178.200 198.498 C 173.985 198.992,174.062 198.957,173.327 200.694 C 172.028 203.767,173.606 207.558,176.884 209.239 C 182.111 211.919,188.256 205.991,185.923 200.519 C 184.852 198.008,184.092 197.809,178.200 198.498 M360.400 249.924 C 360.400 250.139,360.685 250.424,361.033 250.557 C 361.423 250.707,361.606 250.618,361.508 250.325 C 361.309 249.727,360.400 249.398,360.400 249.924 " stroke="none" fill="#040a08" fill-rule="evenodd"></path><path id="path4" d="M309.600 188.421 C 308.511 188.679,308.695 188.709,310.431 188.556 C 313.857 188.254,314.600 189.035,314.600 192.938 C 314.600 200.292,305.541 202.542,302.126 196.037 C 300.681 193.286,301.229 189.641,303.178 189.035 C 303.520 188.929,302.817 188.945,301.616 189.070 C 298.303 189.416,297.998 189.732,298.013 192.796 C 298.021 194.449,298.240 195.684,298.613 196.176 C 298.936 196.604,299.200 197.258,299.200 197.630 C 299.200 198.635,302.369 201.586,304.202 202.287 C 312.776 205.567,321.175 196.860,317.211 188.800 C 316.870 188.107,311.962 187.863,309.600 188.421 M182.600 197.833 C 187.890 199.209,187.709 206.473,182.316 209.239 C 177.047 211.941,170.846 205.780,173.479 200.458 L 174.300 198.800 172.340 198.800 C 170.479 198.800,170.368 198.861,170.138 200.008 C 170.005 200.673,169.740 201.314,169.548 201.432 C 168.201 202.264,170.947 209.192,173.289 210.868 C 181.745 216.923,192.187 209.478,189.103 199.594 C 188.643 198.121,188.496 198.000,187.158 198.000 C 186.363 198.000,184.832 197.916,183.756 197.812 C 182.680 197.709,182.160 197.719,182.600 197.833 M179.300 198.276 C 179.685 198.376,180.315 198.376,180.700 198.276 C 181.085 198.175,180.770 198.093,180.000 198.093 C 179.230 198.093,178.915 198.175,179.300 198.276 M176.500 198.676 C 176.885 198.776,177.515 198.776,177.900 198.676 C 178.285 198.575,177.970 198.493,177.200 198.493 C 176.430 198.493,176.115 198.575,176.500 198.676 " stroke="none" fill="#259d45" fill-rule="evenodd"></path></g></svg>